<?xml version="1.0" standalone="no"?>
<!DOCTYPE svg PUBLIC "-//W3C//DTD SVG 20010904//EN"
 "http://www.w3.org/TR/2001/REC-SVG-20010904/DTD/svg10.dtd">
<svg version="1.0" xmlns="http://www.w3.org/2000/svg"
 width="535.000000pt" height="471.000000pt" viewBox="0 0 535.000000 471.000000"
 preserveAspectRatio="xMidYMid meet">

<g transform="translate(0.000000,471.000000) scale(0.100000,-0.100000)"
fill="#000000" stroke="none">
<path d="M770 4185 c0 -96 4 -155 10 -156 70 -9 70 -8 70 116 l0 115 1825 0
1825 0 0 -121 c0 -106 2 -120 16 -115 9 3 26 6 38 6 22 0 23 3 25 128 1 71 -1
141 -4 155 l-7 27 -1899 0 -1899 0 0 -155z"/>
<path d="M898 3930 l-47 -5 -126 -194 c-69 -107 -127 -196 -129 -198 -2 -2
-36 47 -76 109 -40 62 -98 152 -129 200 l-56 88 -77 0 -78 0 0 -410 0 -410 70
0 70 0 2 292 3 291 124 -194 c68 -107 129 -200 136 -207 10 -11 35 23 130 170
65 101 127 194 137 207 18 23 18 17 18 -268 l0 -291 70 0 70 0 0 409 0 409
-32 3 c-18 2 -54 2 -80 -1z"/>
<path d="M1080 3924 c0 -4 72 -120 160 -260 l159 -252 3 -152 3 -152 65 0 65
0 5 153 c5 145 7 156 31 194 28 43 163 256 248 393 l52 83 -83 -3 -82 -3 -115
-182 c-63 -100 -118 -180 -122 -178 -3 3 -57 85 -120 185 l-114 180 -77 0
c-43 0 -78 -3 -78 -6z"/>
<path d="M2172 3519 l3 -413 65 0 65 0 5 345 5 344 120 -1 c66 -1 138 -6 161
-13 61 -17 130 -74 161 -134 37 -69 39 -180 6 -243 -56 -105 -129 -150 -259
-160 l-80 -7 -22 -54 c-12 -29 -22 -59 -22 -66 0 -9 29 -11 122 -6 136 6 185
21 261 81 60 48 83 75 117 143 59 118 60 250 1 370 -39 79 -100 139 -186 183
l-70 37 -228 3 -227 4 2 -413z"/>
<path d="M3137 3653 c-219 -485 -245 -543 -241 -544 6 -1 46 -1 102 0 l47 2
32 69 32 70 166 0 c91 0 165 3 165 8 0 4 -12 35 -27 70 l-27 62 -109 0 c-60 0
-107 4 -105 8 32 77 164 362 168 362 3 0 70 -145 149 -322 79 -178 145 -325
147 -326 1 -2 35 -4 76 -4 49 0 72 4 70 11 -2 11 -255 573 -329 734 l-36 77
-77 0 -78 0 -125 -277z"/>
<path d="M3860 3520 l0 -410 65 0 65 0 0 410 0 410 -65 0 -65 0 0 -410z"/>
<path d="M4090 3521 l0 -410 28 -3 c15 -2 118 -2 230 0 l202 3 0 64 0 65 -160
0 -160 0 0 345 0 345 -70 0 -70 0 0 -409z"/>
<path d="M4373 3918 c2 -7 75 -125 161 -261 l156 -248 0 -149 0 -148 66 -4
c36 -1 68 -1 70 1 2 2 4 70 4 151 l0 146 158 249 c87 138 161 256 166 263 5 9
-12 12 -73 12 l-81 0 -63 -97 c-35 -54 -88 -137 -118 -185 -29 -49 -56 -88
-59 -88 -3 0 -25 33 -49 73 -24 40 -76 122 -115 184 l-71 112 -79 1 c-58 0
-77 -3 -73 -12z"/>
<path d="M180 1980 l0 -1040 175 0 175 0 0 430 0 430 388 0 c435 0 448 -2 517
-68 53 -52 75 -103 75 -183 0 -81 -18 -127 -70 -179 -71 -71 -84 -73 -371 -78
l-256 -4 -61 -156 c-34 -87 -64 -165 -68 -175 -7 -18 6 -19 337 -15 l344 4 85
29 c204 70 354 233 401 435 16 69 15 212 -1 282 -22 93 -88 206 -168 287 l-72
74 44 91 c154 315 23 675 -299 822 -101 47 -195 54 -707 54 l-468 0 0 -1040z
m1042 662 c164 -81 196 -304 62 -422 -74 -65 -76 -65 -429 -65 l-320 0 -3 245
c-1 134 0 251 3 258 4 11 62 13 323 10 308 -3 318 -4 364 -26z"/>
<path d="M2080 1975 l0 -1035 175 0 175 0 0 1035 0 1035 -175 0 -175 0 0
-1035z"/>
<path d="M2660 1975 l0 -1035 585 0 585 0 0 175 0 175 -410 0 -410 0 0 860 0
860 -175 0 -175 0 0 -1035z"/>
<path d="M3999 3006 c-2 -2 -3 -468 -1 -1035 l2 -1031 580 0 579 0 3 175 3
175 -407 0 -408 0 0 860 0 860 -173 0 c-96 0 -176 -2 -178 -4z"/>
<path d="M770 695 c0 -85 3 -155 8 -155 19 -1 3629 -1 3710 -1 l92 1 0 109 c0
59 -3 129 -6 155 -6 44 -8 46 -40 46 l-33 0 -3 -117 -3 -118 -1822 -3 -1823
-2 0 120 0 120 -40 0 -40 0 0 -155z"/>
</g>
</svg>
